<svg width="1200" height="300" viewBox="0 0 1200 300" xmlns="http://www.w3.org/2000/svg">
  <defs>
    <linearGradient id="gold" x1="0" y1="0" x2="1" y2="1">
      <stop offset="0%" stop-color="#d6b35f" />
      <stop offset="100%" stop-color="#f1d089" />
    </linearGradient>
  </defs>
  <rect x="0" y="0" width="1200" height="300" fill="#0b0d10" rx="48" />
  <g transform="translate(60 40)">
    <rect x="0" y="0" width="220" height="220" rx="60" fill="#0f131a" stroke="#2a2f36" stroke-width="6" />
    <g transform="translate(20 20) scale(1)">
      <rect x="20" y="130" width="160" height="30" rx="15" fill="url(#gold)" />
      <rect x="44" y="160" width="112" height="26" rx="13" fill="url(#gold)" />
      <path d="M20 130 L60 130 L50 60 Z" fill="url(#gold)" />
      <path d="M80 130 L140 130 L110 40 Z" fill="url(#gold)" />
      <path d="M140 130 L180 130 L170 60 Z" fill="url(#gold)" />
      <path d="M92 130 L120 130 L106 86 Z" fill="#0b0d10" />
      <path d="M120 130 L148 130 L134 86 Z" fill="#0b0d10" />
    </g>
  </g>
  <text x="330" y="145" font-family="Bodoni Moda, 'Times New Roman', serif" font-size="78" fill="#f6f3ee" letter-spacing="8">MEETX</text>
  <text x="335" y="205" font-family="Sora, 'Segoe UI', sans-serif" font-size="22" fill="#a7acb4" letter-spacing="6">PERSONAL AI OS</text>
</svg>
